# xmcd
#
# Track frame offsets: 
#        150
#        10042
#        21200
#        31348
#        42916
#        58110
#        69907
#        82440
#        93349
#        104309
#        115267
#        125255
#        133613
#        145814
#        158674
#        169082
#        180325
#        191927
#        204854
#        216034
#        226644
#        236532
#        248917
#        260369
#        271237
#
# Disc length: 3776 seconds
#
# Revision: 1
# Processed by: cddbd v1.5.2PL0 Copyright (c) Steve Scherf et al.
# Submitted via: ExactAudioCopy v0.95b2
#
DISCID=4f0ebe19
DTITLE=Ted Taylor - The Ever Wonderful: Okeh Uptown Soul 1962-1966
DYEAR=2006
DGENRE=R&B
TTITLE0=Don't Lie
TTITLE1=Pretending Love
TTITLE2=Time Has a Way
TTITLE3=You Must Have Been Meant for Me
TTITLE4=I'll Release You
TTITLE5=Can't Take No More
TTITLE6=Be Ever Wonderful
TTITLE7=That's Life I Guess
TTITLE8=You Give Me Nothing to Go On
TTITLE9=Him Instead of Me
TTITLE10=I'll Make It Up to You
TTITLE11=It Ain't Like That No More
TTITLE12=So Hard
TTITLE13=Need You Home
TTITLE14=Somebody's Always Trying
TTITLE15=Top of the World
TTITLE16=If It Wasn't for You
TTITLE17=Don't Deceive Me
TTITLE18=I Love You Yes I Do
TTITLE19=I'm So Satisfied
TTITLE20=(Love Is Like A) Rambling Rose
TTITLE21=Stay Away from My Baby
TTITLE22=Walking out of Your Life
TTITLE23=Daddy's Baby
TTITLE24=Mercy Have Pity
EXTD=
EXTT0=
EXTT1=
EXTT2=
EXTT3=
EXTT4=
EXTT5=
EXTT6=
EXTT7=
EXTT8=
EXTT9=
EXTT10=
EXTT11=
EXTT12=
EXTT13=
EXTT14=
EXTT15=
EXTT16=
EXTT17=
EXTT18=
EXTT19=
EXTT20=
EXTT21=
EXTT22=
EXTT23=
EXTT24=
PLAYORDER=
